<?xml version="1.0" encoding="utf-8"?>
<!-- Generator: Adobe Illustrator 16.0.0, SVG Export Plug-In . SVG Version: 6.00 Build 0)  -->
<!DOCTYPE svg PUBLIC "-//W3C//DTD SVG 1.1//EN" "http://www.w3.org/Graphics/SVG/1.1/DTD/svg11.dtd">
<svg version="1.1" id="Layer_1" xmlns:sketch="http://www.bohemiancoding.com/sketch/ns"
	 xmlns="http://www.w3.org/2000/svg" xmlns:xlink="http://www.w3.org/1999/xlink" x="0px" y="0px" width="178px" height="22px"
	 viewBox="0 0 178 22" enable-background="new 0 0 178 22" xml:space="preserve">
<title>/dev-assets/mekonomen-logo</title>
<desc>Created with Sketch.</desc>
<g id="Till-Avensia" sketch:type="MSPage">
	<g id="_x2F_dev-assets_x2F_mekonomen-logo" sketch:type="MSArtboardGroup">
		<path id="logo_mekonomen" sketch:type="MSShapeGroup" fill="#FFF100" d="M0,19.014h0.204c1.337,0,1.817-0.619,1.817-2.254V4.878
			c0-1.794-1.025-2.156-1.817-2.156H0V0h9.457l3.824,13.996h0.092L17.229,0h9.404v2.722h-0.278c-0.802,0-1.763,0.576-1.763,2.091
			v12.018c0,1.771,0.723,2.222,1.73,2.222h0.311v2.72h-9.229v-2.759h2.06V3.566h-0.092l-5.076,18.206h-3.446L5.857,3.566H5.763
			v15.447h2.113v2.759H0V19.014L0,19.014z M31.83,11.871c0.318-2.695,1.456-3.816,3.24-3.816c1.744,0,2.554,1.068,2.707,3.816H31.83
			L31.83,11.871z M42.464,14.545c0-0.164,0.062-0.705,0.062-1.295c0-5.568-2.531-8.076-7.456-8.076
			c-4.954,0-8.205,3.255-8.205,8.512c0,5.131,2.77,8.314,8.471,8.314c3.436,0,5.25-0.756,6.595-1.576v-3.121h-2.698
			c-0.799,1.018-1.527,1.711-3.475,1.711c-2.472,0-3.796-1.399-3.989-4.469H42.464L42.464,14.545z M60.394,19.078
			c-0.42,0-0.758-0.305-1.158-0.895l-4.042-6.022l3.333-3.418c0.298-0.301,0.83-0.603,1.241-0.603h0.82V5.433H53v2.719h0.605
			c0.834,0,0.982,0.67,0.45,1.218l-3.998,3.901V1.981C50.057,0.891,49.31,0,48.303,0h-4.952v2.673h0.265
			c0.625,0,1.621,0.265,1.621,1.687v13.466c-0.052,0.842-0.724,1.228-1.482,1.228h-0.312v2.719h8.117v-2.719h-1.502v-2.234
			l1.746-1.66l4.292,6.613h4.617v-2.693H60.394L60.394,19.078z M72.953,13.717c0,3.566-1.58,5.246-3.693,5.246
			c-2.123,0-3.701-1.68-3.701-5.246c0-3.597,1.578-5.35,3.701-5.35C71.374,8.367,72.953,10.12,72.953,13.717L72.953,13.717z
			 M60.666,13.686c0,5.225,3.796,8.314,8.594,8.314c4.791,0,8.575-3.09,8.575-8.314c0-5.256-3.784-8.512-8.575-8.512
			C64.462,5.174,60.666,8.429,60.666,13.686L60.666,13.686z M78.324,21.771h8.389v-2.719h-1.773V9.486
			c0.974-0.301,2.061-0.55,3.208-0.55c1.489,0,2.104,0.436,2.104,2v8.116h-1.745v2.719h8.133v-2.719h-0.215
			c-1.242,0-1.363-0.911-1.363-1.5V9.227c0-3.15-1.949-4.053-4.186-4.053c-2.441,0-4.482,0.954-5.969,2.395
			c-0.103-1.702-1.308-2.136-1.84-2.136h-4.856v2.633h0.347c0.892,0,1.571,0.516,1.571,1.609v8.047c0,0.916-0.702,1.33-1.495,1.33
			h-0.311V21.771L78.324,21.771z M159.707,21.771h8.389v-2.719h-1.773V9.486c0.975-0.301,2.061-0.55,3.209-0.55
			c1.488,0,2.104,0.436,2.104,2v8.116h-1.744v2.719h8.133v-2.719h-0.215c-1.241,0-1.362-0.911-1.362-1.5V9.227
			c0-3.15-1.95-4.053-4.187-4.053c-2.44,0-4.482,0.954-5.969,2.395c-0.102-1.702-1.307-2.136-1.841-2.136h-4.854v2.633h0.346
			c0.892,0,1.571,0.516,1.571,1.609v8.047c0,0.916-0.702,1.33-1.493,1.33h-0.312V21.771L159.707,21.771z M109.316,13.717
			c0,3.566-1.58,5.246-3.693,5.246c-2.121,0-3.702-1.68-3.702-5.246c0-3.597,1.581-5.35,3.702-5.35
			C107.736,8.367,109.316,10.12,109.316,13.717L109.316,13.717z M97.03,13.686c0,5.225,3.793,8.314,8.593,8.314
			c4.79,0,8.573-3.09,8.573-8.314c0-5.256-3.783-8.512-8.573-8.512C100.823,5.174,97.03,8.429,97.03,13.686L97.03,13.686z
			 M121.368,9.455c0.944-0.3,2.062-0.518,3.066-0.518c1.417,0,1.898,0.353,1.898,1.887v8.193h-1.61v2.754h8.061v-2.754h-1.63V9.455
			c0.933-0.3,2.051-0.518,3.056-0.518c1.414,0,1.887,0.353,1.887,1.887v8.193h-1.6v2.754h7.999v-2.754h-0.345
			c-0.721,0-1.225-0.334-1.225-1.549V9.228c0-3.15-1.958-4.054-4.103-4.054c-2.562,0-4.479,1.326-5.854,2.582
			c-0.535-1.98-2.154-2.582-3.918-2.582c-2.482,0-4.369,1.244-5.713,2.437V7.568c-0.102-1.701-1.307-2.135-1.842-2.135h-4.854v2.633
			h0.348c0.891,0,1.569,0.516,1.569,1.609v8.047c0,0.916-0.701,1.33-1.493,1.33h-0.312v2.719h8.256v-2.719h-1.641V9.486
			L121.368,9.455L121.368,9.455z M147.971,11.871c0.319-2.695,1.457-3.816,3.242-3.816c1.742,0,2.553,1.068,2.708,3.816H147.971
			L147.971,11.871z M158.606,14.545c0-0.164,0.062-0.705,0.062-1.295c0-5.568-2.532-8.076-7.455-8.076
			c-4.954,0-8.203,3.255-8.203,8.512c0,5.131,2.768,8.314,8.471,8.314c3.434,0,5.249-0.756,6.594-1.576v-3.121h-2.697
			c-0.801,1.018-1.529,1.711-3.477,1.711c-2.473,0-3.795-1.399-3.99-4.469H158.606L158.606,14.545z"/>
	</g>
</g>
</svg>
